<svg width="40" height="40" fill="none" xmlns="http://www.w3.org/2000/svg"><circle cx="20" cy="20" r="20" fill="#F6762C"/><path d="M28 15.526a6.885 6.885 0 0 1-1.89.513 3.239 3.239 0 0 0 1.443-1.797 6.588 6.588 0 0 1-2.08.787A3.3 3.3 0 0 0 23.077 14c-1.816 0-3.278 1.461-3.278 3.253 0 .258.022.506.076.742a9.311 9.311 0 0 1-6.761-3.402 3.253 3.253 0 0 0-.449 1.644 3.25 3.25 0 0 0 1.457 2.702 3.261 3.261 0 0 1-1.482-.4v.036c0 1.58 1.137 2.893 2.628 3.195a3.3 3.3 0 0 1-.86.107c-.21 0-.422-.012-.621-.055a3.308 3.308 0 0 0 3.065 2.265 6.627 6.627 0 0 1-4.067 1.387A6.2 6.2 0 0 1 12 25.43a9.292 9.292 0 0 0 5.032 1.459c6.036 0 9.336-4.957 9.336-9.254 0-.144-.005-.283-.012-.42A6.513 6.513 0 0 0 28 15.524Z" fill="#fff"/></svg>